<svg width="13" height="12" viewBox="0 0 13 12" fill="none" xmlns="http://www.w3.org/2000/svg">
<path fill-rule="evenodd" clip-rule="evenodd" d="M2.05741 9.37863L6.28687 2.31787C6.30911 2.28168 6.34021 2.25173 6.37724 2.23088C6.41468 2.2098 6.45692 2.19873 6.49989 2.19873C6.54285 2.19873 6.5851 2.2098 6.62254 2.23088C6.65957 2.25173 6.69067 2.28168 6.71291 2.31788L10.9424 9.37863C10.9629 9.41558 10.9738 9.45715 10.9739 9.49946C10.974 9.54311 10.9627 9.58604 10.9411 9.62396C10.9195 9.66189 10.8883 9.69349 10.8507 9.71563C10.8139 9.7373 10.7721 9.74916 10.7294 9.7501H2.27036C2.22768 9.74916 2.18592 9.7373 2.14909 9.71563C2.11147 9.69349 2.0803 9.66189 2.05868 9.62396C2.03707 9.58604 2.02576 9.54312 2.02588 9.49946C2.026 9.45714 2.03686 9.41557 2.05741 9.37863ZM6.49988 3.75009C6.91409 3.75009 7.24988 4.08588 7.24988 4.50009V6.50009C7.24988 6.91431 6.91409 7.25009 6.49988 7.25009C6.08566 7.25009 5.74988 6.91431 5.74988 6.50009V4.50009C5.74988 4.08588 6.08566 3.75009 6.49988 3.75009ZM6.49988 7.7501C6.08566 7.7501 5.74988 8.08589 5.74988 8.5001C5.74988 8.91431 6.08566 9.2501 6.49988 9.2501H6.50488C6.91909 9.2501 7.25488 8.91431 7.25488 8.5001C7.25488 8.08589 6.91909 7.7501 6.50488 7.7501H6.49988Z" fill="#DA3131"/>
<path fill-rule="evenodd" clip-rule="evenodd" d="M5.64134 0.923805C5.90343 0.776248 6.19912 0.69873 6.49989 0.69873C6.80066 0.69873 7.09635 0.776248 7.35843 0.923805C7.62052 1.07136 7.84015 1.28397 7.99614 1.54113L7.9983 1.54469L12.2333 8.6147L12.2394 8.62506C12.3922 8.88968 12.473 9.18969 12.4739 9.49526C12.4747 9.80083 12.3956 10.1013 12.2443 10.3668C12.0929 10.6322 11.8747 10.8535 11.6114 11.0084C11.348 11.1634 11.0487 11.2467 10.7431 11.2501L10.7349 11.2501L2.26489 11.2501H2.25664C1.95109 11.2467 1.65175 11.1634 1.38839 11.0084C1.12503 10.8535 0.906837 10.6322 0.755519 10.3668C0.6042 10.1013 0.52503 9.80083 0.525886 9.49526C0.526741 9.18969 0.607593 8.88968 0.760395 8.62506L0.766488 8.6147L5.00149 1.5447L5.64487 1.93009L5.00364 1.54113C5.15963 1.28397 5.37926 1.07136 5.64134 0.923805ZM6.28687 2.31787L2.05741 9.37863C2.03686 9.41557 2.026 9.45714 2.02588 9.49946C2.02576 9.54312 2.03707 9.58604 2.05868 9.62396C2.0803 9.66189 2.11147 9.69349 2.14909 9.71563C2.18592 9.7373 2.22768 9.74916 2.27036 9.7501H10.7294C10.7721 9.74916 10.8139 9.7373 10.8507 9.71563C10.8883 9.69349 10.9195 9.66189 10.9411 9.62396C10.9627 9.58604 10.974 9.54311 10.9739 9.49946C10.9738 9.45715 10.9629 9.41558 10.9424 9.37863L6.71291 2.31788C6.69067 2.28168 6.65957 2.25173 6.62254 2.23088C6.5851 2.2098 6.54285 2.19873 6.49989 2.19873C6.45692 2.19873 6.41468 2.2098 6.37724 2.23088C6.34021 2.25173 6.30911 2.28168 6.28687 2.31787Z" fill="#DA3131"/>
</svg>
