<svg width="26" height="26" viewBox="0 0 26 26" fill="none" xmlns="http://www.w3.org/2000/svg">
<circle cx="13" cy="13" r="12.5" fill="#222222" stroke="white"/>
<path d="M19 19.75V18.25C19 17.4544 18.6839 16.6913 18.1213 16.1287C17.5587 15.5661 16.7956 15.25 16 15.25H10C9.20435 15.25 8.44129 15.5661 7.87868 16.1287C7.31607 16.6913 7 17.4544 7 18.25V19.75" stroke="white" stroke-width="1.5" stroke-linecap="round" stroke-linejoin="round"/>
<path d="M13 12.25C14.6569 12.25 16 10.9069 16 9.25C16 7.59315 14.6569 6.25 13 6.25C11.3431 6.25 10 7.59315 10 9.25C10 10.9069 11.3431 12.25 13 12.25Z" stroke="white" stroke-width="1.5" stroke-linecap="round" stroke-linejoin="round"/>
</svg>
