<svg width="100" height="36" viewBox="0 0 100 36" fill="none" xmlns="http://www.w3.org/2000/svg">
<path d="M66.4411 7.62128V24.428C66.4411 24.6943 66.2382 24.894 65.9675 24.894H62.4831C62.2124 24.894 62.0095 24.6943 62.0095 24.428V7.62128C62.0095 7.35504 62.2124 7.15535 62.4831 7.15535H65.9675C66.2382 7.15535 66.4411 7.35504 66.4411 7.62128ZM93.6739 7.15535H89.7835C89.5805 7.15535 89.4114 7.28848 89.3437 7.48816L86.2652 17.4391L82.8823 7.48816C82.8146 7.28848 82.6455 7.18863 82.4425 7.18863H79.7023C79.4993 7.18863 79.3302 7.32176 79.2625 7.48816L75.8796 17.4391L72.7334 7.48816C72.6658 7.28848 72.4966 7.15535 72.2936 7.15535H68.4032C68.2679 7.15535 68.0988 7.22191 68.0311 7.35504C67.9296 7.48816 67.9296 7.62128 67.9635 7.75441L73.7145 24.5944C73.7821 24.7941 73.9513 24.894 74.1543 24.894H77.2666C77.4695 24.894 77.6387 24.7609 77.7064 24.5944L81.0555 14.7766L84.4046 24.5944C84.4723 24.7941 84.6414 24.894 84.8444 24.894H87.9567C88.1597 24.894 88.3288 24.7609 88.3965 24.5944L94.1475 7.75441C94.1813 7.62128 94.1813 7.45488 94.0798 7.35504C93.9445 7.22191 93.8092 7.15535 93.6739 7.15535ZM99.5264 7.15535H96.0419C95.7713 7.15535 95.5683 7.35504 95.5683 7.62128V24.428C95.5683 24.6943 95.7713 24.894 96.0419 24.894H99.5264C99.797 24.894 100 24.6943 100 24.428V7.62128C100 7.35504 99.797 7.15535 99.5264 7.15535ZM60.0135 24.2949C60.2165 24.5279 60.0474 24.8607 59.7429 24.8607H55.4804C55.3112 24.8607 55.1421 24.7941 55.0406 24.661L54.3302 23.7957C52.8417 24.7276 51.0825 25.2933 49.2219 25.2933C44.0122 25.2933 39.7835 21.1333 39.7835 16.008C39.7835 10.8828 44.0122 6.7227 49.2219 6.7227C54.4317 6.7227 58.6603 10.8828 58.6603 16.008C58.6603 17.8385 58.1191 19.5691 57.1719 21.0334L60.0135 24.2949ZM51.5223 20.5675L49.6617 18.3377C49.4587 18.1047 49.6279 17.7386 49.9323 17.7386H53.8566C54.0595 17.2061 54.161 16.6071 54.161 16.008C54.161 13.2457 52.0636 10.8495 49.1881 10.8495C46.3126 10.8495 44.2152 13.2457 44.2152 16.008C44.2152 18.7703 46.3126 21.1333 49.1881 21.1333C50.0338 21.1665 50.8457 20.9336 51.5223 20.5675ZM28.9919 24.2284C29.0934 24.9273 28.8566 25.2268 28.6536 25.2268C28.4168 25.2268 28.1123 24.9273 27.7402 24.3948C27.3681 23.829 27.2327 23.1967 27.4357 22.8971C27.5372 22.6974 27.8078 22.5976 28.1123 22.6974C28.6874 22.8971 28.9242 23.7957 28.9919 24.2284ZM25.6766 25.7593C26.387 26.3583 26.6238 27.0905 26.2517 27.5897C26.0487 27.856 25.7104 28.0224 25.2706 28.0224C24.8647 28.0224 24.4587 27.8892 24.1543 27.623C23.5115 27.0572 23.3085 26.1254 23.7483 25.6262C23.9175 25.4265 24.1881 25.3266 24.5264 25.3266C24.8985 25.2933 25.3045 25.4597 25.6766 25.7593ZM24.4587 31.5501C27.571 31.5501 30.954 32.6151 34.7091 35.8766C35.0812 36.2094 35.5886 35.8101 35.2503 35.3774C31.5629 30.8179 28.18 29.9526 24.797 29.2205C20.636 28.3219 18.5047 26.0255 17.0162 23.4962C16.7118 22.997 16.5765 23.0968 16.5765 23.7292C16.5426 24.5279 16.6103 25.5596 16.7794 26.5913C16.6103 26.5913 16.4411 26.5913 16.272 26.5913C10.3518 26.5913 5.51421 21.8654 5.51421 16.008C5.51421 10.1506 10.318 5.45804 16.2382 5.45804C22.1583 5.45804 26.9959 10.1839 26.9959 16.0413C26.9959 16.4407 26.9621 16.8733 26.9283 17.2727C26.1502 17.1396 24.594 17.1063 23.5115 17.2061C23.1055 17.2394 23.1732 17.4391 23.4777 17.4724C27.0298 18.1047 29.4655 20.268 30.0406 24.1951C30.0406 24.2949 30.1759 24.3282 30.2097 24.2284C31.6644 21.8322 32.5101 19.0366 32.5101 16.008C32.5101 7.18863 25.2368 0 16.2382 0C7.27334 0.0332807 0 7.18863 0 16.008C0 24.8274 7.27334 32.016 16.272 32.016C18.6062 32.016 20.9743 31.5501 24.4587 31.5501Z" fill="#FF9900"/>
</svg>
