<svg width="120" height="30" viewBox="0 0 120 30" fill="none" xmlns="http://www.w3.org/2000/svg">
<path d="M105.966 0.500061C108.146 0.500061 110.219 1.00342 112.08 1.90383C112.372 2.03655 112.665 2.1954 112.956 2.35438L111.68 3.49367L109.768 1.50692L106.472 4.42049L104.531 2.32756L98.4709 7.75807L102.351 12.0229L100.836 13.347L104.664 17.6118L103.149 18.9354L108.625 25.0016L111.866 22.0346L114.685 25.2142C114.126 25.638 113.515 26.0627 112.851 26.433C110.831 27.5718 108.491 28.2328 105.993 28.2328C98.3109 28.2328 92.0656 22.0092 92.0656 14.3545C92.0384 6.75162 98.2848 0.500061 105.966 0.500061ZM103.414 13.5063L106.737 10.5393L109.714 13.8504L106.391 16.817L103.414 13.5063ZM105.78 19.2281L109.076 16.2349L112.08 19.5456L108.757 22.5127L105.78 19.2281ZM101.05 7.86438L104.372 4.89744L107.349 8.20847L104.026 11.1753L101.05 7.86438ZM107.136 6.27453L109.608 4.04957L111.841 6.51315L109.369 8.76439L107.136 6.27453ZM111.548 16.4728L114.02 14.2477L116.253 16.737L113.78 18.9635L111.548 16.4728ZM113.728 21.4797L116.2 19.2542L118.431 21.7176L115.96 23.9686L113.728 21.4797ZM114.738 10.036L116.385 8.55244L117.873 10.1954L116.226 11.6784L114.738 10.036ZM112.611 5.1355L114.259 3.62597L115.748 5.29449L114.099 6.77789L112.611 5.1355ZM116.837 14.9369L118.485 13.4535L120 15.0958L118.326 16.5788L116.837 14.9369ZM109.422 11.2548L111.894 9.02967L114.126 11.4927L111.655 13.7182L109.422 11.2548Z" fill="#036CB5"/>
<mask id="mask0" mask-type="alpha" maskUnits="userSpaceOnUse" x="0" y="6" width="15" height="14">
<path d="M0 6.26205V19.0657H14.5278V6.26205H0Z" fill="white"/>
</mask>
<g mask="url(#mask0)">
<path d="M7.29079 10.0533H7.16543L4.81171 19.0657H2.88788L0 6.26205H1.99608L3.99264 15.8157H4.11732L6.4342 6.26205H8.02115L10.4989 15.8157H10.6237L12.4421 6.26205H14.5278L11.6392 19.0657H9.71394L7.29079 10.0533Z" fill="#036CB5"/>
</g>
<path d="M17.0603 13.6149H21.1415C21.053 11.7193 20.1434 10.9616 19.1812 10.9616C18.0939 10.9616 17.2556 11.8101 17.0603 13.6149ZM22.5673 17.011V18.3837C21.7654 18.8531 20.6964 19.2145 19.4123 19.2145C16.4185 19.2145 15.1886 17.3364 15.1886 14.4834C15.1886 11.7374 16.5608 9.75089 19.2346 9.75089C21.4622 9.75089 22.8355 11.2146 22.8355 14.1575V14.8257H17.0246C17.0246 16.9921 17.8975 17.9495 19.7342 17.9495C20.6964 17.9495 21.5877 17.6058 22.5673 17.011Z" fill="#036CB5"/>
<path d="M26.9815 17.7667C27.552 18.0194 28.1763 18.0568 28.6227 18.0568C29.9415 18.0568 30.9386 17.2249 30.9386 14.3002C30.9386 12.0068 30.1187 11.2663 28.925 11.2663C28.2114 11.2663 27.6947 11.4656 26.9815 11.8621V17.7667H26.9815ZM27.0002 10.5261C27.5337 10.2381 28.4426 9.85758 29.4055 9.85758C31.6161 9.85758 32.8105 11.4106 32.8105 14.3002C32.8105 17.6774 31.206 19.3207 28.6227 19.3207C27.6772 19.3207 26.2157 19.0136 25.1456 18.4345V5.83083L27.0003 5.38V10.5261H27.0002Z" fill="#036CB5"/>
<path d="M40.8333 16.349H40.9226L44.7363 6.25421H46.9478V19.0588H45.0228V9.77594H44.8621L41.2252 19.0588H40.0855L36.4478 9.99296H36.288V19.0588H34.6836V6.25421H36.8411L40.8333 16.349Z" fill="#036CB5"/>
<path d="M54.8129 14.4829C54.8129 12.0452 53.8333 11.0163 52.6212 11.0163C51.4452 11.0163 50.4283 12.0452 50.4283 14.4829C50.4283 16.9572 51.3563 17.9495 52.6212 17.9495C53.8861 17.9495 54.8129 16.9572 54.8129 14.4829ZM48.5574 14.4829C48.5574 11.3215 50.269 9.75089 52.6212 9.75089C54.9749 9.75089 56.6855 11.3215 56.6855 14.4829C56.6855 17.5703 55.0636 19.2145 52.6212 19.2145C50.1793 19.2145 48.5574 17.5703 48.5574 14.4829Z" fill="#036CB5"/>
<path d="M58.0955 11.0882C58.8975 10.5999 60.5916 9.75089 62.6409 9.75089C64.7798 9.75089 65.5805 10.5999 65.5805 12.4594V18.9976H63.728V12.8753C63.728 11.449 63.034 11.1962 62.1238 11.1962C61.4116 11.1962 60.5014 11.5217 59.9493 11.8467V18.9976H58.0955V11.0882H58.0955Z" fill="#036CB5"/>
<path d="M69.5042 13.6149H73.5857C73.498 11.7193 72.5879 10.9616 71.6253 10.9616C70.5378 10.9616 69.7011 11.8101 69.5042 13.6149ZM75.0114 17.011V18.3837C74.2097 18.8531 73.1402 19.2145 71.8566 19.2145C68.8637 19.2145 67.6331 17.3364 67.6331 14.4834C67.6331 11.7374 69.0048 9.75089 71.6788 9.75089C73.9077 9.75089 75.2808 11.2146 75.2808 14.1575V14.8257H69.4692C69.4692 16.9921 70.3427 17.9495 72.1787 17.9495C73.1402 17.9495 74.0328 17.6058 75.0114 17.011Z" fill="#036CB5"/>
<path d="M82.6845 9.75089H84.5923L81.3657 18.779C80.4732 21.2714 79.3872 22.5717 77.3377 22.5717V21.0919C78.5505 21.0919 79.2979 20.1163 79.7267 18.779L76.3041 9.75089H78.2652L80.5466 16.3963H80.6536L82.6845 9.75089Z" fill="#036CB5"/>
<path d="M19.2532 27.3882V26.6084C19.9142 26.9467 20.5432 27.1166 21.1392 27.1166C21.6355 27.1166 22.0158 27.0248 22.2815 26.8396C22.5472 26.6556 22.6803 26.4068 22.6803 26.0922C22.6803 25.7779 22.5711 25.542 22.3524 25.3851C22.1344 25.2284 21.7267 25.0344 21.1305 24.8045C20.9235 24.7262 20.7913 24.6751 20.7316 24.6508C20.6729 24.6271 20.5578 24.5782 20.3863 24.506C20.2153 24.4339 20.1031 24.379 20.0502 24.343C19.9969 24.3057 19.9072 24.2511 19.7799 24.1796C19.6531 24.1063 19.5676 24.0418 19.5231 23.9854C19.4793 23.9274 19.4184 23.8541 19.3415 23.7666C19.265 23.6794 19.2131 23.5928 19.1864 23.5045C19.1601 23.417 19.1347 23.3158 19.1113 23.2007C19.0879 23.0854 19.0759 22.9619 19.0759 22.8289C19.0759 22.3151 19.2636 21.9023 19.6382 21.5876C20.0134 21.274 20.5311 21.1168 21.1925 21.1168C21.7768 21.1168 22.3587 21.2253 22.9368 21.443V22.2673C22.3761 21.9889 21.8152 21.8511 21.2543 21.8511C20.8588 21.8511 20.5636 21.9343 20.3688 22.1033C20.174 22.2723 20.0764 22.496 20.0764 22.7743C20.0764 23.0706 20.174 23.2951 20.3688 23.4496C20.5636 23.6046 20.9122 23.7753 21.4141 23.962C22.2757 24.2823 22.8692 24.5722 23.1936 24.8325C23.5185 25.0914 23.6808 25.4793 23.6808 25.9921C23.6808 26.5304 23.458 26.9704 23.0122 27.3117C22.5664 27.6531 21.9542 27.8239 21.1747 27.8239C20.4607 27.8239 19.8199 27.6781 19.2532 27.3882ZM28.2635 27.6866H27.4224L27.3603 27.161C26.8522 27.5844 26.3447 27.7962 25.837 27.7962C25.4121 27.7962 25.083 27.6802 24.8499 27.4469C24.6163 27.2143 24.4999 26.9206 24.4999 26.5631C24.4999 26.3756 24.5337 26.1963 24.6017 26.024C24.6697 25.8516 24.7819 25.6845 24.9382 25.5214C25.0946 25.358 25.3307 25.2269 25.6464 25.1268C25.9622 25.0265 26.3418 24.977 26.7847 24.977H27.3339V24.7323C27.3339 24.3276 27.2601 24.052 27.1124 23.9032C26.9644 23.755 26.7166 23.6811 26.3685 23.6811C25.9434 23.6811 25.4208 23.8585 24.8012 24.2159V23.491C25.4388 23.195 26.0643 23.0458 26.6782 23.0458C27.2743 23.0458 27.688 23.1704 27.9178 23.4187C28.1484 23.6658 28.2635 24.041 28.2635 24.5413V27.6866V27.6866ZM27.3427 25.6112H26.873C25.9047 25.6112 25.4208 25.9045 25.4208 26.4908C25.4208 26.697 25.4855 26.8449 25.6155 26.9392C25.7457 27.0331 25.908 27.0794 26.103 27.0794C26.3504 27.0794 26.5898 27.0189 26.82 26.8978C27.0502 26.7777 27.2246 26.6388 27.3427 26.4816V25.6112H27.3427ZM29.7024 29.5V23.7088C29.9623 23.5089 30.2689 23.3481 30.6234 23.2275C30.9779 23.1075 31.3256 23.0458 31.6685 23.0458C32.896 23.0458 33.5103 23.8046 33.5103 25.3218C33.5103 26.1072 33.351 26.7085 33.0319 27.1247C32.7132 27.5421 32.2562 27.7496 31.6594 27.7496C31.246 27.7496 30.9007 27.6438 30.6235 27.4337V29.5H29.7024ZM30.6146 24.0159V26.7632C30.7326 26.8775 30.8815 26.9627 31.0616 27.0204C31.2418 27.0778 31.3999 27.1064 31.5355 27.1064C31.86 27.1064 32.1156 26.9788 32.3017 26.722C32.4876 26.4647 32.5802 25.998 32.5802 25.3218C32.5802 24.772 32.4848 24.369 32.2929 24.1166C32.101 23.8619 31.8513 23.7357 31.5442 23.7357C31.1964 23.7357 30.8865 23.8288 30.6146 24.0159ZM35.6224 23.0924V27.6866H34.7015V23.3185L35.6224 23.0924ZM34.5597 21.7594C34.5597 21.5963 34.6201 21.4532 34.741 21.3286C34.8624 21.2048 35.0026 21.1427 35.1614 21.1427C35.3212 21.1427 35.4614 21.2048 35.5827 21.3286C35.7037 21.4532 35.7641 21.5963 35.7641 21.7594C35.7641 21.9225 35.7037 22.0665 35.5827 22.1908C35.4614 22.3135 35.3212 22.3756 35.1614 22.3756C35.0026 22.3756 34.8624 22.3135 34.741 22.1908C34.6201 22.0665 34.5597 21.9225 34.5597 21.7594ZM39.0715 27.161C39.4969 27.161 39.9657 27.0038 40.4795 26.6902V27.379C40.0074 27.6573 39.4848 27.7962 38.9122 27.7962C38.1919 27.7962 37.6623 27.5876 37.3228 27.1705C36.9832 26.7532 36.8135 26.1705 36.8135 25.4212C36.8135 24.7078 36.9878 24.1332 37.3357 23.6996C37.6844 23.2646 38.1799 23.0458 38.8233 23.0458C39.3905 23.0458 39.8298 23.2337 40.1434 23.6087C40.4562 23.9839 40.6122 24.5329 40.6122 25.2578V25.5937H37.7256C37.7256 26.1317 37.8349 26.5279 38.0531 26.7802C38.2716 27.035 38.6111 27.161 39.0715 27.161ZM38.7967 23.6541C38.5197 23.6541 38.2862 23.7661 38.0973 23.9887C37.9086 24.2126 37.7903 24.5456 37.7432 24.9854H39.771C39.7471 24.5388 39.6441 24.2059 39.461 23.9854C39.2783 23.7643 39.0568 23.6541 38.7967 23.6541ZM41.7854 27.6866V23.7174C42.5115 23.2699 43.2643 23.0458 44.0439 23.0458C44.5693 23.0458 44.9439 23.1554 45.1682 23.3731C45.3926 23.5908 45.5048 23.9349 45.5048 24.4058V27.6866H44.584V24.6145C44.584 24.2823 44.516 24.0584 44.3803 23.9443C44.2444 23.8288 44.0468 23.7718 43.7869 23.7718C43.4328 23.7718 43.0725 23.881 42.7067 24.0983V27.6866H41.7854V27.6866ZM47.8204 23.2646H49.2196L48.9982 23.881H47.8204V26.2731C47.8204 26.8775 48.0744 27.1796 48.5819 27.1796C48.7767 27.1796 48.9744 27.1376 49.1759 27.0528V27.6323C48.8982 27.7414 48.5673 27.7962 48.1837 27.7962C47.7408 27.7962 47.4162 27.6675 47.2094 27.4099C47.0029 27.1542 46.8995 26.817 46.8995 26.3991V22.6658L47.8204 21.9853V23.2646H47.8204ZM51.0223 23.0924V27.6866H50.101V23.3185L51.0223 23.0924ZM49.9595 21.7594C49.9595 21.5963 50.0201 21.4532 50.1404 21.3286C50.2614 21.2048 50.4016 21.1427 50.5614 21.1427C50.7206 21.1427 50.8612 21.2048 50.9818 21.3286C51.1031 21.4532 51.1636 21.5963 51.1636 21.7594C51.1636 21.9225 51.1031 22.0665 50.9818 22.1908C50.8612 22.3135 50.7206 22.3756 50.5614 22.3756C50.4016 22.3756 50.2614 22.3135 50.1404 22.1908C50.0201 22.0665 49.9595 21.9225 49.9595 21.7594ZM57.2916 23.4092V24.1333C56.8487 23.8315 56.3999 23.6811 55.9458 23.6811C55.7155 23.6811 55.5266 23.7263 55.3786 23.8172C55.2312 23.9072 55.1574 24.0528 55.1574 24.2511C55.1574 24.4396 55.2383 24.5886 55.4007 24.7003C55.5632 24.8124 55.8185 24.9257 56.1672 25.0397C56.362 25.1063 56.5078 25.158 56.605 25.1941C56.7028 25.2312 56.8308 25.2917 56.9905 25.3757C57.1498 25.4607 57.2696 25.5445 57.3491 25.6297C57.4288 25.7146 57.5011 25.8257 57.5662 25.9652C57.6311 26.1041 57.6632 26.2577 57.6632 26.427C57.6632 26.8443 57.4994 27.1764 57.1723 27.4242C56.8445 27.6719 56.4059 27.7963 55.8572 27.7963C55.243 27.7963 54.732 27.6633 54.3249 27.3966V26.6902C54.8443 27.0038 55.3196 27.161 55.751 27.161C56.3999 27.161 56.7248 26.9441 56.7248 26.5086C56.7248 26.4244 56.7056 26.3452 56.6672 26.2731C56.6288 26.2006 56.5846 26.1418 56.5346 26.0962C56.4842 26.051 56.4028 25.9998 56.2906 25.9415C56.1784 25.8853 56.0842 25.8432 56.0074 25.8156C55.9308 25.7886 55.8097 25.7447 55.6446 25.6845C55.4023 25.5937 55.2105 25.5155 55.0686 25.4486C54.9267 25.3816 54.7855 25.2958 54.6437 25.1905C54.5018 25.0847 54.3983 24.9585 54.3338 24.8139C54.269 24.6694 54.2365 24.4966 54.2365 24.2975C54.2365 24.0436 54.2954 23.8267 54.4134 23.6459C54.5315 23.4634 54.6853 23.3335 54.8738 23.2553C55.0627 23.1765 55.2355 23.1218 55.3919 23.0925C55.5486 23.0612 55.7034 23.0458 55.8572 23.0458C56.3591 23.0458 56.8371 23.167 57.2916 23.4092ZM62.184 27.6866H61.343L61.2806 27.161C60.7726 27.5844 60.2653 27.7962 59.7579 27.7962C59.3328 27.7962 59.0036 27.6802 58.7704 27.4469C58.5369 27.2143 58.4206 26.9206 58.4206 26.5631C58.4206 26.3756 58.4545 26.1963 58.5225 26.024C58.5903 25.8516 58.7025 25.6845 58.859 25.5214C59.0158 25.358 59.2514 25.2269 59.5672 25.1268C59.8832 25.0265 60.2627 24.977 60.7049 24.977H61.2545V24.7323C61.2545 24.3276 61.1803 24.052 61.0335 23.9032C60.885 23.755 60.6372 23.6811 60.2895 23.6811C59.8641 23.6811 59.3415 23.8585 58.7218 24.2159V23.491C59.3595 23.195 59.985 23.0458 60.5989 23.0458C61.1955 23.0458 61.6081 23.1704 61.8386 23.4187C62.0687 23.6658 62.184 24.041 62.184 24.5413V27.6866H62.184ZM61.2638 25.6112H60.794C59.8257 25.6112 59.3415 25.9045 59.3415 26.4908C59.3415 26.697 59.4065 26.8449 59.5362 26.9392C59.6664 27.0331 59.8282 27.0794 60.0235 27.0794C60.2712 27.0794 60.5097 27.0189 60.7408 26.8978C60.9709 26.7777 61.1454 26.6388 61.2638 26.4816V25.6112H61.2638ZM64.5002 23.2646H65.8992L65.6772 23.881H64.5002V26.2731C64.5002 26.8775 64.7538 27.1796 65.2609 27.1796C65.456 27.1796 65.6531 27.1376 65.8547 27.0528V27.6323C65.5771 27.7414 65.247 27.7962 64.8621 27.7962C64.4201 27.7962 64.0956 27.6675 63.8889 27.4099C63.6821 27.1542 63.5784 26.817 63.5784 26.3991V22.6658L64.5002 21.9853V23.2646H64.5002Z" fill="#B6B6B6"/>
</svg>
