<svg width="100" height="36" viewBox="0 0 100 36" fill="none" xmlns="http://www.w3.org/2000/svg">
<path d="M99.9625 19.5415C99.83 18.7748 99.1862 18.3148 98.255 18.3046C97.9677 18.3005 97.6825 18.3291 97.4033 18.2985C96.8532 18.2412 96.7086 18.4252 96.7126 18.8627C96.7391 21.0093 96.731 23.1539 96.7228 25.2944C96.7167 26.4167 95.6246 27.5698 94.3124 27.8621C90.2374 28.7596 86.1664 29.6714 82.0873 30.5607C81.6289 30.6609 81.146 30.712 80.6794 30.7079C80.4757 30.7079 80.1945 30.5525 80.1069 30.4013C80.0498 30.3011 80.2291 30.0578 80.3697 29.9331C80.5551 29.7818 80.7915 29.6612 81.0339 29.5774C81.7817 29.3096 82.5417 29.0663 83.2976 28.8148C86.3233 27.8049 89.3552 26.8072 92.3768 25.7912C93.7399 25.3291 94.4754 24.4173 94.4979 23.2663C94.5671 19.5374 94.5325 15.8084 94.5162 12.0754C94.5162 11.4845 94.2106 10.9918 93.5097 10.7363C92.7028 10.446 91.9937 10.677 91.2928 11.0123C87.01 13.0628 82.7292 15.1092 78.4422 17.1557C77.181 17.7588 76.4781 18.6317 76.4842 19.8747C76.4984 23.4013 76.4882 26.9217 76.4923 30.4442C76.4923 30.62 76.5107 30.7999 76.5657 30.9676C76.9874 32.1656 78.0816 32.8525 79.5934 32.8525C82.6069 32.8607 85.6306 32.8566 88.6461 32.8566C91.6514 32.8566 94.6466 32.8607 97.6519 32.8525C98.3039 32.8525 98.905 32.7176 99.394 32.3128C100.028 31.8017 99.9951 31.1515 99.9951 30.5035C100.001 27.0689 100.001 23.6384 99.9971 20.1977C100.003 19.983 99.9991 19.7582 99.9625 19.5415ZM87.4317 18.4395C87.7353 17.6484 88.3975 17.1536 89.4081 17.0269C90.0764 16.941 90.6592 17.356 90.7549 17.9611C90.8996 18.8934 89.7382 19.9769 88.5911 19.9728C87.6335 19.9728 87.0996 19.3002 87.4317 18.4395Z" fill="#F87E0D"/>
<path d="M15.5096 4.80771C15.5096 5.89532 15.5096 6.96045 15.5096 8.0358C14.6885 8.0358 13.9244 8.0358 13.1012 8.0358C13.1012 6.93796 13.1012 5.87283 13.1012 4.79749C12.655 4.79749 12.2679 4.79749 11.842 4.79749C11.842 7.48995 11.842 10.1354 11.842 12.787C12.2821 12.787 12.6795 12.787 13.1399 12.787C13.1399 11.5767 13.1399 10.3991 13.1399 9.20928C13.9549 9.20928 14.7088 9.20928 15.5177 9.20928C15.5177 10.4155 15.5177 11.5951 15.5177 12.791C15.9762 12.791 16.3735 12.791 16.7993 12.791C16.7993 10.117 16.7993 7.46746 16.7993 4.80771C16.3633 4.80771 15.966 4.80771 15.5096 4.80771Z" fill="#222222"/>
<path d="M47.5414 26.7991C47.1624 24.8999 45.7239 23.7468 43.4276 23.5567C42.523 23.4872 41.602 23.5445 40.626 23.5445C40.626 21.8701 40.626 20.1773 40.626 18.4887C39.9333 18.4887 39.3057 18.4887 38.6619 18.4887C38.6619 23.1417 38.6619 27.762 38.6619 32.5459C40.1146 32.5459 41.5185 32.6297 42.904 32.5234C44.9802 32.368 46.5633 31.5401 47.305 29.8412C47.737 28.8558 47.7451 27.8295 47.5414 26.7991ZM44.5034 28.9294C44.1387 30.4831 42.5535 31.215 40.6423 30.7612C40.6423 29.0357 40.6342 27.3388 40.6586 25.6379C40.6586 25.5255 40.8542 25.3415 40.9948 25.3149C42.906 24.9081 44.1835 25.5459 44.5156 27.1467C44.6338 27.7211 44.6379 28.3529 44.5034 28.9294Z" fill="#222222"/>
<path d="M8.77153 0.50004C8.07674 0.50004 7.38602 0.502085 6.69326 0.50004C5.71526 0.495952 4.90432 0.802611 4.23806 1.39344C1.94993 3.42556 2.55099 7.28537 5.59504 8.10926C4.57221 9.65073 3.55549 11.1881 2.48987 12.7991C2.92386 12.7991 3.25801 12.7766 3.58401 12.8052C4.01597 12.8441 4.23806 12.703 4.43773 12.382C5.19976 11.1411 6.00866 9.91855 6.79921 8.68782C7.16393 8.12357 7.20875 8.10722 8.06859 8.27281C8.06859 9.76113 8.06859 11.2617 8.06859 12.7602C8.58815 12.7602 9.03844 12.7602 9.52745 12.7602C9.52745 12.5027 9.52745 12.2859 9.52745 12.0652C9.52745 8.41387 9.52745 4.76055 9.52745 1.10723C9.52745 0.500042 9.52541 0.502085 8.77153 0.50004ZM8.02784 6.98485C7.03557 6.97463 6.00051 7.222 5.24459 6.47579C4.37864 5.62328 4.13211 4.63789 4.452 3.55641C4.47848 3.47054 4.52127 3.38877 4.55591 3.30699C5.19976 1.82072 6.04941 1.40775 8.02784 1.65512C8.02784 3.4317 8.02784 5.18374 8.02784 6.98485Z" fill="#DA3131"/>
<path d="M44.8315 11.6398C42.6697 12.3635 41.1782 11.7093 40.787 9.8203C40.5812 8.84104 40.6546 7.85564 41.0111 6.90091C41.492 5.59659 42.4476 5.20815 44.0368 5.63952C44.0674 5.6477 44.1041 5.63339 44.1591 5.62521C44.318 5.4269 44.481 5.21838 44.6583 4.99554C43.3461 4.13076 41.547 4.33725 40.569 5.42895C39.8131 6.27124 39.5176 7.24641 39.4219 8.27065C39.3139 9.44618 39.4585 10.5869 40.2328 11.6194C41.0437 12.6988 42.4496 13.2058 43.8963 12.8664C44.9171 12.6252 45.0312 12.5189 44.8315 11.6398Z" fill="#222222"/>
<path d="M10.6053 30.8859C10.6053 26.7357 10.6053 22.6327 10.6053 18.4928C8.07264 18.4928 5.61947 18.4928 3.22742 18.4928C3.12555 20.5964 3.07665 22.6654 2.90957 24.7302C2.76083 26.562 2.35741 28.359 1.55055 30.0885C1.28363 30.6589 0.963745 31.0351 0.148739 30.8981C0.105951 30.892 0.0529754 30.9247 0 30.9451C0 32.4662 0 33.979 0 35.4919C0.743693 35.4919 1.4446 35.4919 2.20255 35.4919C2.20255 34.4635 2.20255 33.4761 2.20255 32.4907C4.87781 32.4907 7.50009 32.4907 10.1794 32.4907C10.1794 33.5088 10.1794 34.4942 10.1794 35.5C10.9252 35.5 11.6098 35.5 12.3188 35.5C12.3188 33.9627 12.3188 32.4457 12.3188 30.8859C11.73 30.8859 11.186 30.8859 10.6053 30.8859ZM8.21526 30.8695C6.5608 30.8695 4.92468 30.8695 3.38635 30.8695C3.79793 29.835 4.3012 28.8169 4.60682 27.76C5.22011 25.6359 5.21604 23.4565 5.23234 21.2834C5.23642 20.9481 5.23234 20.6087 5.23234 20.2407C6.23276 20.2407 7.20262 20.2407 8.2173 20.2407C8.21526 23.7571 8.21526 27.2836 8.21526 30.8695Z" fill="#222222"/>
<path d="M31.339 11.7483C30.9661 11.8567 30.6075 11.9875 30.2326 12.0632C29.1874 12.2758 28.4416 12.0427 28.0443 11.3824C27.5777 10.6096 27.6001 9.77959 27.6287 8.91073C28.9693 8.91073 30.2571 8.91073 31.5713 8.91073C31.6568 7.6105 31.4979 6.39204 30.6768 5.28398C29.9555 4.31085 28.7065 4.15548 27.7142 4.95484C27.3414 5.25332 27.0276 5.63561 26.8075 6.02405C26.1922 7.10553 25.9579 8.27083 26.1026 9.45249C26.1942 10.1864 26.396 10.9326 26.7077 11.6236C27.16 12.6397 28.2053 13.159 29.4135 13.0302C29.9983 12.9688 30.5831 12.8032 31.1332 12.6111C31.7465 12.3985 31.7628 12.2022 31.339 11.7483ZM28.2827 5.88912C28.7269 5.33509 29.4604 5.35144 29.8536 5.93205C30.2937 6.57603 30.3467 7.28748 30.3284 8.03369C29.3728 8.03369 28.4987 8.03369 27.5818 8.03369C27.6246 7.25273 27.7733 6.52901 28.2827 5.88912Z" fill="#222222"/>
<path d="M34.9638 18.7544C34.8782 18.6502 34.7702 18.4927 34.6622 18.4887C34.0123 18.4621 33.3603 18.4723 32.641 18.4723C32.641 20.4124 32.641 22.326 32.641 24.2497C31.227 24.2497 29.8822 24.2497 28.4234 24.2497C28.4234 22.3096 28.4234 20.4083 28.4234 18.4825C27.6348 18.4825 26.9156 18.4825 26.174 18.4825C26.174 23.1948 26.174 27.8826 26.174 32.5929C26.938 32.5929 27.6695 32.5929 28.4519 32.5929C28.4519 32.3885 28.4519 32.2126 28.4519 32.0409C28.4519 30.3931 28.4499 28.7556 28.4519 27.1098C28.4519 26.2042 28.4519 26.2042 29.5318 26.2042C30.5546 26.2042 31.5774 26.2042 32.6573 26.2042C32.6573 28.3733 32.6573 30.477 32.6573 32.597C33.4499 32.597 34.1834 32.597 34.9434 32.597C34.9536 32.4416 34.9699 32.3087 34.9699 32.182C34.9699 27.762 34.9699 23.342 34.9699 18.9262C34.9699 18.8669 34.9984 18.7933 34.9638 18.7544Z" fill="#222222"/>
<path d="M36.2208 7.93144C37.0073 7.02373 37.7592 6.09762 38.5232 5.17969C38.617 5.06725 38.6985 4.94868 38.8289 4.77695C38.5823 4.77695 38.4377 4.7933 38.3011 4.7749C37.7429 4.69926 37.4026 4.88121 37.099 5.28191C36.4287 6.16509 35.685 7.00738 34.9678 7.86398C34.8863 7.96006 34.7844 8.04388 34.5888 8.23401C34.5888 7.00533 34.5888 5.91363 34.5888 4.79944C34.1487 4.79944 33.7636 4.79944 33.3439 4.79944C33.3439 7.42852 33.3439 10.0147 33.3439 12.5988C33.7718 12.5988 34.1568 12.5988 34.6071 12.5988C34.6071 11.6727 34.5868 10.765 34.6194 9.86135C34.6316 9.5506 34.7742 9.23985 34.8557 8.92911C35.0982 9.07835 35.2021 9.21123 35.2938 9.35025C35.9437 10.3295 36.5856 11.3088 37.2416 12.2819C37.3272 12.4107 37.4739 12.5845 37.6125 12.6029C37.9833 12.6499 38.3643 12.6192 38.8228 12.6192C37.9099 11.225 37.0583 9.90837 36.1862 8.59791C36.0212 8.35259 36.0089 8.17472 36.2208 7.93144Z" fill="#222222"/>
<path d="M66.1499 18.4437C65.7832 18.4314 65.6181 18.5357 65.4877 18.8158C64.6055 20.7661 63.7008 22.7062 62.8023 24.6504C62.409 25.5009 62.0015 26.3514 61.6042 27.2018C61.5655 27.1978 61.535 27.1896 61.4962 27.1855C61.4962 24.2906 61.4962 21.3958 61.4962 18.4784C60.7057 18.4784 59.9722 18.4784 59.2203 18.4784C59.2203 23.1989 59.2203 27.9031 59.2203 32.6093C59.9722 32.6093 60.6812 32.6093 61.4555 32.6093C62.8756 29.5304 64.2958 26.4393 65.7282 23.3216C65.7282 26.425 65.7282 29.514 65.7282 32.6011C66.6206 32.6011 67.4478 32.6011 68.2995 32.6011C68.2995 27.8806 68.2995 23.1928 68.2995 18.4539C67.5599 18.4539 66.8549 18.4743 66.1499 18.4437Z" fill="#222222"/>
<path d="M23.0545 30.5791C22.3556 30.7958 21.726 31.0432 21.0618 31.1802C18.9041 31.6238 17.4941 31.0248 16.8788 29.4547C16.404 28.2485 16.4224 27.0035 16.402 25.689C18.7655 25.689 21.0577 25.689 23.4437 25.689C23.3459 24.5952 23.3357 23.528 23.138 22.4956C22.8874 21.2015 22.3903 19.9606 21.3613 18.9179C20.4506 17.9959 19.3544 17.7281 17.9872 18.1002C16.567 18.4866 15.7011 19.382 15.1184 20.443C13.4109 23.5567 13.2642 26.7643 14.5723 29.9985C14.9656 30.9757 15.6318 31.8262 16.7402 32.37C18.5984 33.2879 21.6038 32.969 23.4885 31.6463C23.3397 31.2783 23.189 30.9062 23.0545 30.5791ZM17.4656 20.5718C17.7977 20.1037 18.2398 19.7214 18.9815 19.7561C19.7069 19.795 20.1368 20.1752 20.4281 20.67C21.072 21.7801 21.18 22.9699 21.1739 24.2047C19.552 24.2047 17.9852 24.2047 16.3348 24.2047C16.457 22.8984 16.6852 21.6738 17.4656 20.5718Z" fill="#222222"/>
<path d="M24.112 11.7259C24.112 9.4035 24.112 7.10969 24.112 4.79749C22.7122 4.79749 21.3695 4.79749 19.9493 4.79749C19.9493 5.31676 19.9677 5.78288 19.9473 6.25104C19.878 7.87838 19.8189 9.50776 19.1425 11.0656C18.9754 11.4499 18.8511 11.8609 18.2052 11.775C18.2052 12.6418 18.2052 13.4677 18.2052 14.2896C18.6127 14.2896 18.9774 14.2896 19.4053 14.2896C19.4053 13.7274 19.4053 13.1918 19.4053 12.6561C20.9294 12.6561 22.3882 12.6561 23.9143 12.6561C23.9143 13.2224 23.9143 13.758 23.9143 14.2814C24.3422 14.2814 24.7028 14.2814 25.0492 14.2814C25.0492 13.4146 25.0492 12.5887 25.0492 11.7627C24.7232 11.7505 24.4461 11.7382 24.112 11.7259ZM22.7978 11.7259C21.8483 11.7259 20.9558 11.7259 19.9941 11.7259C21.2105 9.83691 21.0455 7.80683 21.1331 5.78083C21.6894 5.78083 22.2273 5.78083 22.7978 5.78083C22.7978 7.7598 22.7978 9.72038 22.7978 11.7259Z" fill="#222222"/>
<path d="M49.6482 18.4742C49.6482 23.205 49.6482 27.9009 49.6543 32.5989C50.3552 32.5989 51.0215 32.5989 51.7346 32.5989C51.7346 28.363 51.7346 24.1576 51.7346 19.8951C53.8781 19.8951 55.9808 19.8951 58.0774 19.8951C58.0774 19.3901 58.0774 18.9424 58.0774 18.4742C55.2615 18.4742 52.4824 18.4742 49.6482 18.4742Z" fill="#222222"/>
</svg>
