<svg width="24" height="24" viewBox="0 0 24 24" fill="none" xmlns="http://www.w3.org/2000/svg">
<g clip-path="url(#clip0)">
<path d="M20.6291 7.8777C20.4216 7.14349 19.8137 6.56475 19.0427 6.36704C17.6341 6 11.9998 6 11.9998 6C11.9998 6 6.36565 6 4.95707 6.35305C4.20094 6.55063 3.57815 7.14362 3.37065 7.8777C3 9.21876 3 12 3 12C3 12 3 14.7952 3.37065 16.1223C3.57829 16.8564 4.18611 17.4353 4.95721 17.633C6.38048 18 12 18 12 18C12 18 17.6341 18 19.0427 17.647C19.8138 17.4494 20.4216 16.8705 20.6293 16.1364C20.9999 14.7952 20.9999 12.0141 20.9999 12.0141C20.9999 12.0141 21.0148 9.21876 20.6291 7.8777Z" fill="#FF0000"/>
<path d="M10 15L15 12L10 9V15Z" fill="white"/>
</g>
<defs>
<clipPath id="clip0">
<rect width="24" height="24" rx="12" fill="white"/>
</clipPath>
</defs>
</svg>
