<svg width="24" height="24" viewBox="0 0 24 24" fill="none" xmlns="http://www.w3.org/2000/svg">
<path d="M21 15C21 15.5304 20.7893 16.0391 20.4142 16.4142C20.0391 16.7893 19.5304 17 19 17H7L3 21V5C3 4.46957 3.21071 3.96086 3.58579 3.58579C3.96086 3.21071 4.46957 3 5 3H19C19.5304 3 20.0391 3.21071 20.4142 3.58579C20.7893 3.96086 21 4.46957 21 5V15Z" stroke="white" stroke-width="1.5" stroke-linecap="round" stroke-linejoin="round"/>
<path d="M11.0113 11.9298C10.9778 11.8479 10.9509 11.7565 10.9308 11.6556C10.914 11.5517 10.9057 11.454 10.9057 11.3626C10.9057 11.2176 10.9208 11.0853 10.9509 10.9656C10.9811 10.8458 11.0264 10.734 11.0868 10.63C11.1472 10.5228 11.2226 10.422 11.3132 10.3275C11.4038 10.2298 11.5094 10.1337 11.6302 10.0392C11.7577 9.93833 11.8683 9.84537 11.9623 9.7603C12.0595 9.67207 12.1417 9.58542 12.2088 9.50034C12.2759 9.41211 12.3262 9.3223 12.3597 9.23093C12.3933 9.13639 12.4101 9.03241 12.4101 8.91897C12.4101 8.82129 12.3916 8.73149 12.3547 8.64956C12.3178 8.56448 12.2642 8.49201 12.1937 8.43214C12.1266 8.37227 12.0428 8.32501 11.9421 8.29034C11.8449 8.25568 11.7358 8.23835 11.6151 8.23835C11.3535 8.23835 11.0818 8.29034 10.8 8.39433C10.5182 8.49516 10.2516 8.64956 10 8.85753V7.43484C10.2583 7.28989 10.54 7.18118 10.8453 7.10871C11.1505 7.03624 11.4658 7 11.7912 7C12.1031 7 12.3933 7.03309 12.6616 7.09926C12.93 7.16228 13.1631 7.26311 13.361 7.40176C13.5623 7.5404 13.7182 7.71843 13.8289 7.93585C13.943 8.15012 14 8.40851 14 8.71101C14 8.90322 13.9765 9.0781 13.9296 9.23565C13.8826 9.39005 13.8138 9.53657 13.7233 9.67522C13.6327 9.81386 13.5203 9.94778 13.3862 10.077C13.252 10.203 13.0977 10.3338 12.9233 10.4693C12.8059 10.5607 12.7019 10.6457 12.6113 10.7245C12.5241 10.8033 12.4503 10.8821 12.3899 10.9608C12.3329 11.0365 12.2893 11.1184 12.2591 11.2066C12.2289 11.2917 12.2138 11.3894 12.2138 11.4997C12.2138 11.5753 12.2239 11.6525 12.244 11.7313C12.2675 11.81 12.2977 11.8762 12.3346 11.9298H11.0113ZM11.7459 14C11.4776 14 11.2545 13.9244 11.0767 13.7731C10.899 13.6156 10.8101 13.4297 10.8101 13.2154C10.8101 12.9948 10.899 12.8105 11.0767 12.6624C11.2545 12.5143 11.4776 12.4402 11.7459 12.4402C12.0109 12.4402 12.2306 12.5143 12.405 12.6624C12.5795 12.8073 12.6667 12.9917 12.6667 13.2154C12.6667 13.4423 12.5811 13.6298 12.4101 13.7779C12.2356 13.926 12.0143 14 11.7459 14Z" fill="white"/>
</svg>
